<mxfile host="app.diagrams.net" modified="2024-06-28T15:08:01.705Z" agent="Mozilla/5.0 (Windows NT 10.0; Win64; x64) AppleWebKit/537.36 (KHTML, like Gecko) Chrome/126.0.0.0 Safari/537.36" etag="0t46tHWqRKxzbMQV3Vo_" version="24.6.4" type="device">
  <diagram name="Page-1" id="0PycMk9thyyUhH5SyRL8">
    <mxGraphModel dx="1235" dy="727" grid="1" gridSize="10" guides="1" tooltips="1" connect="1" arrows="1" fold="1" page="1" pageScale="1" pageWidth="850" pageHeight="1100" math="0" shadow="0">
      <root>
        <mxCell id="0" />
        <mxCell id="1" parent="0" />
        <mxCell id="aFKmT2xun2jeYw1U3Rap-22" value="&lt;b&gt;todo-app&lt;/b&gt;" style="rounded=1;whiteSpace=wrap;html=1;labelBackgroundColor=none;fillColor=#d5e8d4;align=left;verticalAlign=top;spacingTop=15;spacingLeft=15;strokeColor=#82b366;" vertex="1" parent="1">
          <mxGeometry x="255" y="180" width="400" height="240" as="geometry" />
        </mxCell>
        <mxCell id="aFKmT2xun2jeYw1U3Rap-10" value="&lt;div&gt;&lt;b&gt;Trello&lt;/b&gt;&lt;/div&gt;&lt;div&gt;Stores tasks and their states.&lt;/div&gt;" style="rounded=0;whiteSpace=wrap;html=1;fillColor=#dae8fc;strokeColor=#6c8ebf;" vertex="1" parent="1">
          <mxGeometry x="380" y="480" width="150" height="70" as="geometry" />
        </mxCell>
        <mxCell id="aFKmT2xun2jeYw1U3Rap-20" value="Sends HTTP requests" style="edgeStyle=orthogonalEdgeStyle;rounded=0;orthogonalLoop=1;jettySize=auto;html=1;entryX=0.5;entryY=0;entryDx=0;entryDy=0;labelPosition=right;verticalLabelPosition=middle;align=left;verticalAlign=middle;spacingTop=35;" edge="1" parent="1" source="aFKmT2xun2jeYw1U3Rap-12" target="aFKmT2xun2jeYw1U3Rap-10">
          <mxGeometry relative="1" as="geometry" />
        </mxCell>
        <mxCell id="aFKmT2xun2jeYw1U3Rap-12" value="&lt;div&gt;&lt;span style=&quot;background-color: initial;&quot;&gt;&lt;b&gt;Application code&lt;/b&gt;&lt;/span&gt;&lt;br&gt;&lt;/div&gt;&lt;div&gt;Python WSGI app that handles routing and business logic&lt;/div&gt;" style="rounded=0;whiteSpace=wrap;html=1;fillColor=#fff2cc;strokeColor=#d6b656;" vertex="1" parent="1">
          <mxGeometry x="380" y="330" width="150" height="60" as="geometry" />
        </mxCell>
        <mxCell id="aFKmT2xun2jeYw1U3Rap-17" value="Passes requests to" style="edgeStyle=orthogonalEdgeStyle;rounded=0;orthogonalLoop=1;jettySize=auto;html=1;entryX=0.5;entryY=0;entryDx=0;entryDy=0;labelPosition=right;verticalLabelPosition=middle;align=left;verticalAlign=middle;labelBackgroundColor=none;" edge="1" parent="1" source="aFKmT2xun2jeYw1U3Rap-13" target="aFKmT2xun2jeYw1U3Rap-12">
          <mxGeometry relative="1" as="geometry" />
        </mxCell>
        <mxCell id="aFKmT2xun2jeYw1U3Rap-13" value="&lt;b&gt;Flask Server&lt;/b&gt;&lt;div&gt;Sends requests to the Python application.&lt;/div&gt;" style="rounded=0;whiteSpace=wrap;html=1;fillColor=#e1d5e7;strokeColor=#9673a6;" vertex="1" parent="1">
          <mxGeometry x="380" y="210" width="150" height="60" as="geometry" />
        </mxCell>
        <mxCell id="aFKmT2xun2jeYw1U3Rap-15" value="Sends HTTP requests" style="edgeStyle=orthogonalEdgeStyle;rounded=0;orthogonalLoop=1;jettySize=auto;html=1;labelPosition=right;verticalLabelPosition=middle;align=left;verticalAlign=middle;spacingBottom=35;" edge="1" parent="1" source="aFKmT2xun2jeYw1U3Rap-14" target="aFKmT2xun2jeYw1U3Rap-13">
          <mxGeometry relative="1" as="geometry" />
        </mxCell>
        <mxCell id="aFKmT2xun2jeYw1U3Rap-14" value="&lt;b&gt;Web Browser&lt;/b&gt;&lt;div&gt;Displays web page and handles user interactions.&lt;/div&gt;" style="rounded=0;whiteSpace=wrap;html=1;fillColor=#f5f5f5;fontColor=#333333;strokeColor=#666666;" vertex="1" parent="1">
          <mxGeometry x="380" y="60" width="150" height="70" as="geometry" />
        </mxCell>
      </root>
    </mxGraphModel>
  </diagram>
</mxfile>
